<svg width="219" height="147" viewBox="0 0 219 147" fill="none" xmlns="http://www.w3.org/2000/svg">
<path d="M0 146.998L12.1888 127.914V112.957L29.8809 87.683L57.7957 83.0408L73.9167 90.7782L80.2071 97.4834L97.5072 48.4844L108.909 42.2938L119.525 10.8312L137.611 0L154.124 36.1048L167.492 42.81L178.893 73.4992L190.689 88.1991L197.373 111.926L208.774 119.146L218.997 146.998H0Z" fill="white"/>
<path d="M208.776 119.146L197.373 111.926L190.689 88.1991L178.893 73.4992L167.492 42.81L154.124 36.1048L137.611 0L124.779 17.6868L129.26 66.2599L157.552 76.4576L165.116 108.34L147.313 135.577L115.563 59.3757L119.115 117.093L126.317 138.888L103.334 120.095L82.3363 91.4539L80.2071 97.4834L66.0522 91.4824L54.6265 98.4133L53.9562 132.133L47.4907 146.998H218.997L208.776 119.146Z" fill="#DAF1F7"/>
<path d="M122.786 76.4576L108.909 42.2938L97.5073 48.4844L122.786 76.4576Z" fill="#7CBFE0"/>
<path d="M208.776 119.146L197.374 111.924L190.69 88.1991L178.895 73.4993L167.493 42.81L154.125 36.1049L137.77 0.344604C137.77 0.344604 153.341 48.0285 157.202 55.3927C161.062 62.7569 184.135 108.059 184.135 108.059L181.09 135.579L111.236 147H219L208.776 119.146Z" fill="#7CBFE0"/>
<path d="M117.136 84.9112L119.115 117.093L124.583 133.638L123.851 107.77L117.136 84.9112Z" fill="#7CBFE0"/>
<path d="M92.8599 133.638L80.2312 97.4172L80.2073 97.4834L73.9169 90.7782L57.7959 83.0408L30.5903 87.5656L53.4985 108.34L53.9564 132.133L47.4909 146.999L58.2612 131.4L57.0058 107.591L69.3906 93.7215L92.8599 133.638Z" fill="#7CBFE0"/>
<path d="M192.047 115.02L186.524 138.098H194.055L195.914 129.968L203.845 121.689L192.047 115.02Z" fill="#DAF1F7"/>
</svg>
